<svg width="405" height="405" viewBox="0 0 405 405" fill="none" xmlns="http://www.w3.org/2000/svg">
<path d="M202.5 405C165.154 405 128.536 394.673 96.694 375.16C64.8517 355.647 39.0257 327.708 22.0712 294.433C5.11666 261.158 -2.30586 223.842 0.624241 186.612C3.55434 149.382 16.7229 113.687 38.6741 83.4735L71.4393 107.279C53.8783 131.449 43.3435 160.005 40.9994 189.79C38.6553 219.574 44.5933 249.426 58.1569 276.046C71.7206 302.667 92.3814 325.017 117.855 340.628C143.329 356.238 172.624 364.5 202.5 364.5L202.5 405Z" fill="#1351CB"/>
<path d="M366.326 83.4735C388.277 113.687 401.446 149.382 404.376 186.612C407.306 223.842 399.883 261.158 382.929 294.433C365.974 327.708 340.148 355.647 308.306 375.16C276.464 394.673 239.846 405 202.5 405L202.5 364.5C232.377 364.5 261.671 356.238 287.145 340.628C312.619 325.017 333.279 302.667 346.843 276.046C360.407 249.426 366.345 219.574 364.001 189.79C361.657 160.005 351.122 131.449 333.561 107.279L366.326 83.4735Z" fill="#5BB2FF"/>
<path d="M139.924 9.91106C180.594 -3.30355 224.404 -3.30369 265.075 9.91065C305.745 23.125 341.188 48.8754 366.324 83.4714L333.56 107.277C313.451 79.6003 285.096 59 252.56 48.4285C220.023 37.857 184.976 37.8572 152.439 48.4288L139.924 9.91106Z" fill="#05DBF2"/>
<path d="M38.6741 83.4735C63.81 48.8768 99.2533 23.1258 139.924 9.91106L152.439 48.4288C119.903 59.0006 91.548 79.6015 71.4393 107.279L38.6741 83.4735Z" fill="#05DBF2"/>
<path d="M128.46 242.33C123.837 242.33 119.213 241.76 114.59 240.62C110.03 239.48 106.04 237.865 102.62 235.775L109.46 221.62C112.12 223.393 115.065 224.755 118.295 225.705C121.588 226.655 124.787 227.13 127.89 227.13C131.12 227.13 133.685 226.528 135.585 225.325C137.485 224.122 138.435 222.412 138.435 220.195C138.435 218.232 137.643 216.68 136.06 215.54C134.477 214.337 131.88 213.735 128.27 213.735H120.385V201.86L138.245 182.575L140.05 189.035H106.04V174.5H154.11V186.28L136.25 205.565L127.035 200.34H132.165C140.462 200.34 146.732 202.208 150.975 205.945C155.282 209.618 157.435 214.368 157.435 220.195C157.435 223.995 156.39 227.573 154.3 230.93C152.273 234.287 149.138 237.042 144.895 239.195C140.652 241.285 135.173 242.33 128.46 242.33ZM185.818 242.33C181.258 242.33 176.667 241.76 172.043 240.62C167.42 239.48 163.43 237.865 160.073 235.775L166.818 221.62C169.542 223.393 172.487 224.755 175.653 225.705C178.883 226.655 182.082 227.13 185.248 227.13C188.415 227.13 190.98 226.528 192.943 225.325C194.907 224.058 195.888 222.317 195.888 220.1C195.888 218.77 195.508 217.598 194.748 216.585C193.988 215.508 192.69 214.717 190.853 214.21C189.017 213.64 186.388 213.355 182.968 213.355H164.918L168.243 174.5H210.613V189.035H174.893L184.488 180.77L182.303 206.99L172.708 198.725H187.433C194.02 198.725 199.308 199.675 203.298 201.575C207.288 203.412 210.202 205.913 212.038 209.08C213.875 212.183 214.793 215.698 214.793 219.625C214.793 223.552 213.748 227.257 211.658 230.74C209.632 234.16 206.497 236.947 202.253 239.1C198.01 241.253 192.532 242.33 185.818 242.33ZM229.106 241L274.516 174.5H288.196L242.786 241H229.106ZM235.186 210.505C231.956 210.505 229.042 209.777 226.446 208.32C223.849 206.863 221.822 204.773 220.366 202.05C218.909 199.263 218.181 195.938 218.181 192.075C218.181 188.212 218.909 184.918 220.366 182.195C221.822 179.472 223.849 177.382 226.446 175.925C229.042 174.405 231.956 173.645 235.186 173.645C238.479 173.645 241.392 174.405 243.926 175.925C246.522 177.382 248.549 179.472 250.006 182.195C251.526 184.918 252.286 188.212 252.286 192.075C252.286 195.875 251.526 199.168 250.006 201.955C248.549 204.742 246.522 206.863 243.926 208.32C241.392 209.777 238.479 210.505 235.186 210.505ZM235.281 201.48C236.864 201.48 238.162 200.752 239.176 199.295C240.252 197.838 240.791 195.432 240.791 192.075C240.791 188.718 240.252 186.312 239.176 184.855C238.162 183.398 236.864 182.67 235.281 182.67C233.697 182.67 232.336 183.398 231.196 184.855C230.119 186.312 229.581 188.718 229.581 192.075C229.581 195.432 230.119 197.838 231.196 199.295C232.336 200.752 233.697 201.48 235.281 201.48ZM282.116 241.855C278.822 241.855 275.877 241.127 273.281 239.67C270.747 238.213 268.752 236.123 267.296 233.4C265.839 230.613 265.111 227.288 265.111 223.425C265.111 219.562 265.839 216.268 267.296 213.545C268.752 210.822 270.747 208.732 273.281 207.275C275.877 205.755 278.822 204.995 282.116 204.995C285.409 204.995 288.322 205.755 290.856 207.275C293.452 208.732 295.479 210.822 296.936 213.545C298.456 216.268 299.216 219.562 299.216 223.425C299.216 227.288 298.456 230.613 296.936 233.4C295.479 236.123 293.452 238.213 290.856 239.67C288.322 241.127 285.409 241.855 282.116 241.855ZM282.116 232.83C283.699 232.83 285.029 232.102 286.106 230.645C287.182 229.188 287.721 226.782 287.721 223.425C287.721 220.068 287.182 217.662 286.106 216.205C285.029 214.748 283.699 214.02 282.116 214.02C280.596 214.02 279.266 214.748 278.126 216.205C277.049 217.662 276.511 220.068 276.511 223.425C276.511 226.782 277.049 229.188 278.126 230.645C279.266 232.102 280.596 232.83 282.116 232.83Z" fill="#1351CB"/>
</svg>
